<?xml version="1.0" standalone="no"?>
<!DOCTYPE svg PUBLIC "-//W3C//DTD SVG 20010904//EN"
 "http://www.w3.org/TR/2001/REC-SVG-20010904/DTD/svg10.dtd">
<svg version="1.0" xmlns="http://www.w3.org/2000/svg"
 width="120.000000pt" height="120.000000pt" viewBox="0 0 120.000000 120.000000"
 preserveAspectRatio="xMidYMid meet">
<metadata>
Created by potrace 1.11, written by Peter Selinger 2001-2013
</metadata>
<g transform="translate(0.000000,120.000000) scale(0.100000,-0.100000)"
fill="#000000" stroke="none">
<path d="M490 1116 c-87 -29 -118 -52 -163 -116 -75 -107 -115 -222 -134 -385
-9 -81 -9 -306 0 -352 4 -20 2 -37 -6 -45 -38 -39 -78 -120 -83 -168 -1 -8 -3
-22 -5 -30 -4 -13 60 -15 515 -18 l518 -2 -6 22 c-4 13 -9 34 -12 48 -3 13
-10 30 -16 37 -6 7 -8 13 -4 13 3 0 -8 23 -26 52 -28 45 -43 98 -28 98 13 0 2
283 -15 397 -11 77 -14 86 -46 168 -51 129 -128 223 -219 267 -53 25 -212 34
-270 14z"/>
</g>
</svg>
